<svg xmlns="http://www.w3.org/2000/svg" viewBox="-2400 -1800 4800 3200"><rect x="-2210" y="-1375" width="4420" height="50" rx="6" fill="#a9783f" stroke="#5b3a29" stroke-width="8" stroke-linejoin="round"/><rect x="-2210" y="-475" width="4420" height="50" rx="6" fill="#a9783f" stroke="#5b3a29" stroke-width="8" stroke-linejoin="round"/><rect x="-2210" y="425" width="4420" height="50" rx="6" fill="#a9783f" stroke="#5b3a29" stroke-width="8" stroke-linejoin="round"/><rect x="-2210" y="1325" width="4420" height="50" rx="6" fill="#a9783f" stroke="#5b3a29" stroke-width="8" stroke-linejoin="round"/><rect x="-2175" y="-1350" width="30" height="2700" rx="4" fill="#a9783f" stroke="#5b3a29" stroke-width="6" stroke-linejoin="round"/><rect x="2145" y="-450" width="30" height="1800" rx="4" fill="#a9783f" stroke="#5b3a29" stroke-width="6" stroke-linejoin="round"/><rect x="-735" y="-450" width="30" height="1800" rx="4" fill="#a9783f" stroke="#5b3a29" stroke-width="6" stroke-linejoin="round"/><rect x="705" y="-450" width="30" height="1800" rx="4" fill="#a9783f" stroke="#5b3a29" stroke-width="6" stroke-linejoin="round"/><rect x="-735" y="-1350" width="30" height="900" rx="4" fill="#a9783f" stroke="#5b3a29" stroke-width="6" stroke-linejoin="round"/><rect x="705" y="-1350" width="30" height="900" rx="4" fill="#a9783f" stroke="#5b3a29" stroke-width="6" stroke-linejoin="round"/><polygon points="-2240,-1375 -720,-1800 800,-1375" fill="#d95d4a" stroke="#5b3a29" stroke-width="10" stroke-linejoin="round"/><rect x="-1500" y="-1740" width="100" height="140" rx="6" fill="#8d5b3a" stroke="#5b3a29" stroke-width="8" stroke-linejoin="round"/><rect x="720" y="-1350" width="1440" height="50" rx="6" fill="#a9783f" stroke="#5b3a29" stroke-width="8" stroke-linejoin="round"/><line x1="780" y1="-1350" x2="780" y2="-1100" stroke="#5b3a29" stroke-width="10" stroke-linecap="round"/><line x1="890" y1="-1350" x2="890" y2="-1100" stroke="#5b3a29" stroke-width="10" stroke-linecap="round"/><line x1="1000" y1="-1350" x2="1000" y2="-1100" stroke="#5b3a29" stroke-width="10" stroke-linecap="round"/><line x1="1110" y1="-1350" x2="1110" y2="-1100" stroke="#5b3a29" stroke-width="10" stroke-linecap="round"/><line x1="1220" y1="-1350" x2="1220" y2="-1100" stroke="#5b3a29" stroke-width="10" stroke-linecap="round"/><line x1="1330" y1="-1350" x2="1330" y2="-1100" stroke="#5b3a29" stroke-width="10" stroke-linecap="round"/><line x1="1440" y1="-1350" x2="1440" y2="-1100" stroke="#5b3a29" stroke-width="10" stroke-linecap="round"/><line x1="1550" y1="-1350" x2="1550" y2="-1100" stroke="#5b3a29" stroke-width="10" stroke-linecap="round"/><line x1="1660" y1="-1350" x2="1660" y2="-1100" stroke="#5b3a29" stroke-width="10" stroke-linecap="round"/><line x1="1770" y1="-1350" x2="1770" y2="-1100" stroke="#5b3a29" stroke-width="10" stroke-linecap="round"/><line x1="1880" y1="-1350" x2="1880" y2="-1100" stroke="#5b3a29" stroke-width="10" stroke-linecap="round"/><line x1="1990" y1="-1350" x2="1990" y2="-1100" stroke="#5b3a29" stroke-width="10" stroke-linecap="round"/><line x1="2100" y1="-1350" x2="2100" y2="-1100" stroke="#5b3a29" stroke-width="10" stroke-linecap="round"/><line x1="720" y1="-1100" x2="2160" y2="-1100" stroke="#5b3a29" stroke-width="14" stroke-linecap="round"/><rect x="-260" y="-475" width="90" height="50" rx="4" fill="#c9945a" stroke="#5b3a29" stroke-width="5" stroke-linejoin="round"/><rect x="-170" y="-497" width="90" height="72" rx="4" fill="#c9945a" stroke="#5b3a29" stroke-width="5" stroke-linejoin="round"/><rect x="-80" y="-519" width="90" height="94" rx="4" fill="#c9945a" stroke="#5b3a29" stroke-width="5" stroke-linejoin="round"/><rect x="10" y="-541" width="90" height="116" rx="4" fill="#c9945a" stroke="#5b3a29" stroke-width="5" stroke-linejoin="round"/><rect x="100" y="-563" width="90" height="138" rx="4" fill="#c9945a" stroke="#5b3a29" stroke-width="5" stroke-linejoin="round"/><rect x="190" y="-585" width="90" height="160" rx="4" fill="#c9945a" stroke="#5b3a29" stroke-width="5" stroke-linejoin="round"/><rect x="-260" y="425" width="90" height="50" rx="4" fill="#c9945a" stroke="#5b3a29" stroke-width="5" stroke-linejoin="round"/><rect x="-170" y="403" width="90" height="72" rx="4" fill="#c9945a" stroke="#5b3a29" stroke-width="5" stroke-linejoin="round"/><rect x="-80" y="381" width="90" height="94" rx="4" fill="#c9945a" stroke="#5b3a29" stroke-width="5" stroke-linejoin="round"/><rect x="10" y="359" width="90" height="116" rx="4" fill="#c9945a" stroke="#5b3a29" stroke-width="5" stroke-linejoin="round"/><rect x="100" y="337" width="90" height="138" rx="4" fill="#c9945a" stroke="#5b3a29" stroke-width="5" stroke-linejoin="round"/><rect x="190" y="315" width="90" height="160" rx="4" fill="#c9945a" stroke="#5b3a29" stroke-width="5" stroke-linejoin="round"/><rect x="2160" y="210" width="220" height="40" rx="6" fill="#a9783f" stroke="#5b3a29" stroke-width="8" stroke-linejoin="round"/><line x1="2190" y1="60" x2="2190" y2="210" stroke="#5b3a29" stroke-width="10" stroke-linecap="round"/><line x1="2280" y1="60" x2="2280" y2="210" stroke="#5b3a29" stroke-width="10" stroke-linecap="round"/><line x1="2160" y1="60" x2="2380" y2="60" stroke="#5b3a29" stroke-width="14" stroke-linecap="round"/><rect x="-2330" y="810" width="170" height="300" rx="10" fill="#b5673a" stroke="#5b3a29" stroke-width="6" stroke-linejoin="round"/><circle cx="-2200" cy="970" r="12" fill="#ffe066" stroke="#5b3a29" stroke-width="6" stroke-linejoin="round"/><rect x="-2390" y="1110" width="230" height="40" rx="6" fill="#a9783f" stroke="#5b3a29" stroke-width="8" stroke-linejoin="round"/><rect x="-2330" y="1150" width="170" height="40" rx="6" fill="#a9783f" stroke="#5b3a29" stroke-width="8" stroke-linejoin="round"/></svg>
