<svg xmlns="http://www.w3.org/2000/svg" viewBox="0 0 512 512">
  <defs>
    <linearGradient id="g" x1="0.2" y1="0" x2="0.8" y2="1"><stop offset="0" stop-color="#fff083"/><stop offset="1" stop-color="#f7ae1d"/></linearGradient>
    <filter id="sh" x="-20%" y="-20%" width="140%" height="150%"><feDropShadow dx="0" dy="10" stdDeviation="8" flood-color="#5b3a29" flood-opacity="0.35"/></filter>
  </defs>
  <g filter="url(#sh)" transform="translate(256 262) scale(2.1) translate(-256 -256)">
    <polygon points="256,161 279.5,223.6 346.4,226.6 294,268.4 311.8,332.9 256,296 200.2,332.9 218,268.4 165.6,226.6 232.5,223.6" fill="url(#g)" stroke="#5b3a29" stroke-width="19" stroke-linejoin="round"/>
    <polygon points="256,161 279.5,223.6 346.4,226.6 294,268.4 311.8,332.9 256,296 200.2,332.9 218,268.4 165.6,226.6 232.5,223.6" fill="url(#g)" stroke="url(#g)" stroke-width="12" stroke-linejoin="round"/>
  </g>
  <ellipse cx="216" cy="196" rx="14" ry="30" transform="rotate(30 216 196)" fill="#ffffff" fill-opacity="0.5"/>
</svg>
